<?xml version="1.0" standalone="no"?>
<!DOCTYPE svg PUBLIC "-//W3C//DTD SVG 20010904//EN"
 "http://www.w3.org/TR/2001/REC-SVG-20010904/DTD/svg10.dtd">
<svg version="1.0" xmlns="http://www.w3.org/2000/svg"
 width="279.000000pt" height="305.000000pt" viewBox="0 0 279.000000 305.000000"
 preserveAspectRatio="xMidYMid meet">
<metadata>
Created by potrace 1.16, written by Peter Selinger 2001-2019
</metadata>
<g transform="translate(0.000000,305.000000) scale(0.100000,-0.100000)"
fill="#000000" stroke="none">
<path d="M0 1525 l0 -1525 1395 0 1395 0 0 1525 0 1525 -1395 0 -1395 0 0
-1525z m1662 1077 c412 -110 707 -408 810 -819 19 -74 22 -116 23 -258 0 -147
-3 -182 -24 -260 -98 -373 -363 -660 -718 -778 -137 -46 -209 -57 -358 -57
-407 0 -783 229 -969 590 -307 598 -24 1320 609 1549 129 47 229 61 395 57
114 -3 175 -9 232 -24z"/>
<path d="M1120 1516 c0 -339 2 -616 5 -616 3 0 150 100 327 221 178 122 378
260 446 306 67 46 122 86 122 88 0 3 -854 589 -887 609 -10 6 -13 -119 -13
-608z"/>
</g>
</svg>
